<?xml version="1.0" encoding="UTF-8" standalone="no"?>
<!-- Created with Inkscape (http://www.inkscape.org/) -->

<svg
   xmlns:dc="http://purl.org/dc/elements/1.1/"
   xmlns:cc="http://creativecommons.org/ns#"
   xmlns:rdf="http://www.w3.org/1999/02/22-rdf-syntax-ns#"
   xmlns:svg="http://www.w3.org/2000/svg"
   xmlns="http://www.w3.org/2000/svg"
   xmlns:sodipodi="http://sodipodi.sourceforge.net/DTD/sodipodi-0.dtd"
   xmlns:inkscape="http://www.inkscape.org/namespaces/inkscape"
   id="svg2"
   version="1.1"
   inkscape:version="0.91 r13725"
   xml:space="preserve"
   width="521.23938"
   height="177.16562"
   viewBox="0 0 521.2394 177.16562"
   sodipodi:docname="HujiNew.svg"><metadata
     id="metadata8"><rdf:RDF><cc:Work
         rdf:about=""><dc:format>image/svg+xml</dc:format><dc:type
           rdf:resource="http://purl.org/dc/dcmitype/StillImage" /><dc:title></dc:title></cc:Work></rdf:RDF></metadata><defs
     id="defs6"><clipPath
       clipPathUnits="userSpaceOnUse"
       id="clipPath20"><path
         d="m 0,595.28 1133.858,0 0,-595.28 L 0,0 0,595.28 Z"
         id="path22"
         inkscape:connector-curvature="0" /></clipPath></defs><sodipodi:namedview
     pagecolor="#ffffff"
     bordercolor="#666666"
     borderopacity="1"
     objecttolerance="10"
     gridtolerance="10"
     guidetolerance="10"
     inkscape:pageopacity="0"
     inkscape:pageshadow="2"
     inkscape:window-width="1920"
     inkscape:window-height="1018"
     id="namedview4"
     showgrid="false"
     inkscape:zoom="0.69737633"
     inkscape:cx="-29.763539"
     inkscape:cy="-83.301521"
     inkscape:window-x="-8"
     inkscape:window-y="-8"
     inkscape:window-maximized="1"
     inkscape:current-layer="g10"
     fit-margin-top="0"
     fit-margin-left="0"
     fit-margin-right="0"
     fit-margin-bottom="0" /><g
     id="g10"
     inkscape:groupmode="layer"
     inkscape:label="huji_final_logos"
     transform="matrix(1.25,0,0,-1.25,-104.84763,682.38288)"><g
       id="g12"
       transform="translate(98.6963,475.7012)"><path
         d="m 0,0 -11.884,0 -0.777,1.056 -1.666,-2.249 0.972,-1.388 1.193,0 0,-11.079 11.246,0 0,11.05 0.666,0.278 L 0,0 Z m -3.083,-11.271 -6.913,0 0,8.69 6.913,0 0,-8.69 z m 6.581,12.327 3.22,-1.582 0,-6.97 -2.165,0 0,5.358 -2.471,1.277 1.416,1.917 z m 6.386,7.496 2.165,0.916 0,-9.412 8.108,-0.056 0.638,-1.693 -5.386,-12.217 -1.944,0.916 4.692,10.44 -8.273,0 0,11.106 z m 27.654,-7.496 -3.693,-9.718 -5.58,-2.111 -0.361,1.277 5.691,8.913 -1.443,1.639 -4.971,-7.858 -2.165,7.858 -1.916,-1.528 3.693,-13.438 8.69,3.193 3.693,10.134 -1.638,1.639 z m 4.886,0 3.221,-1.582 0,-13.134 -2.166,0 0,11.439 -2.471,1.36 1.416,1.917 z m 6.83,-3.637 -0.972,1.388 1.666,2.249 0.778,-1.056 7.719,0 0,-13.66 -2.166,0 0,11.079 -7.025,0 z m 13.383,3.637 3.219,-1.582 0,-6.97 -2.164,0 0,5.358 -2.472,1.277 1.417,1.917 z m 7.662,0 0.778,-1.056 6.886,0 0,-10.911 1.86,0.083 0,-2.47 -11.911,-0.5 0,2.47 7.885,0.334 0,8.413 -6.191,0 -0.973,1.388 1.666,2.249 z m 20.13,-3.637 1.194,0 0.305,-8.441 -3.138,-0.418 0,-2.47 5.442,0.612 -0.444,10.717 6.497,0 0,-11.079 2.166,0 0,11.05 0.667,0.278 L 103.367,0 91.9,0 91.123,1.056 89.457,-1.193 90.429,-2.581 Z m 16.492,3.637 3.221,-1.582 0,-6.97 -2.166,0 0,5.358 -2.471,1.277 1.416,1.917 z m 6.636,-3.637 -0.972,1.388 1.665,2.249 0.778,-1.056 7.72,0 0,-13.66 -2.166,0 0,11.079 -7.025,0 z m 14.187,3.637 0.777,-1.056 6.887,0 0,-10.911 1.86,0.083 0,-2.47 -11.912,-0.5 0,2.47 7.886,0.334 0,8.413 -6.192,0 -0.972,1.388 1.666,2.249 z m 24.211,-0.389 -2.388,-0.75 -1.638,-10.3 -2.943,-0.417 -1.972,11.633 -2.138,-1.249 1.917,-10.717 -3.999,-0.556 0,-2.471 10.967,1.556 2.194,13.271 z m 3.165,-3.248 8.857,0 0,-11.079 2.165,0 0,11.05 0.667,0.278 0.25,2.332 -10.468,0 -0.777,1.056 -1.666,-2.249 0.972,-1.388 z m 2.082,-2.693 0,-8.386 -2.166,0 0,7.552 2.166,0.834 z m 20.74,2.693 8.857,0 0,-11.079 2.165,0 0,11.05 0.667,0.278 0.249,2.332 -10.467,0 -0.777,1.056 -1.666,-2.249 0.972,-1.388 z m 2.082,-2.693 0,-8.386 -2.166,0 0,7.552 2.166,0.834 z m 12.521,4.802 1.111,-13.438 10.079,1.472 1.555,12.438 -6.192,0 -1.221,-2.581 4.858,0 -0.971,-7.663 -6.081,-0.806 -0.972,12.19 -2.166,-1.612 z m 16.049,1.528 3.219,-1.582 0,-6.97 -2.165,0 0,5.358 -2.469,1.277 1.415,1.917 z M 216.618,0 l 11.577,0 -2.081,-12.661 -9.135,-1.249 -1.361,11.329 -0.583,0 -0.777,1.388 1.665,2.249 L 216.618,0 Z m 7.663,-10.439 1.249,7.858 -7.662,0 0.915,-8.469 5.498,0.611 z m 6.996,7.858 -0.972,1.388 1.665,2.249 0.78,-1.056 7.719,0 0,-13.66 -2.167,0 0,11.079 -7.025,0 z m 14.189,3.637 0.778,-1.056 6.885,0 0,-10.911 1.86,0.083 0,-2.47 -11.911,-0.5 0,2.47 7.884,0.334 0,8.413 -6.19,0 -0.974,1.388 1.668,2.249 z m 11.439,0 3.219,-1.582 0,-6.97 -2.164,0 0,5.358 -2.471,1.277 1.416,1.917 z m 11.242,-1.582 0,-12.411 -6.411,-1.307 0,2.473 4.246,0.943 0,8.607 -2.47,1.36 1.416,1.917 3.219,-1.582 z m 3.694,1.582 3.221,-1.582 0,-13.134 -2.165,0 0,11.439 -2.472,1.36 1.416,1.917 z m 16.91,-9.219 1.388,8.163 -2.304,0 -1.085,-5.803 -5.441,6.525 -1.528,-0.86 -2.026,-13.522 2.193,0 1.555,10.357 9.107,-10.607 1.027,2.278 -2.886,3.469 z m 5.19,5.582 8.859,0 0,-11.079 2.165,0 0,11.05 0.665,0.278 0.251,2.332 -10.466,0 -0.78,1.056 -1.666,-2.249 0.972,-1.388 z m 2.083,-2.693 0,-8.386 -2.167,0 0,7.552 2.167,0.834 z"
         style="fill:#231f20;fill-opacity:1;fill-rule:nonzero;stroke:none"
         id="path14"
         inkscape:connector-curvature="0" /></g><g
       id="g24"
       transform="translate(92.5571,448.3242)"><path
         d="m 0,0 0,1.664 -8.679,0 0,-1.664 3.345,0 0,-10.542 1.97,0 L -3.364,0 0,0 Z m 11.229,-10.542 0,12.206 -1.953,0 0,-5.046 -5.768,0 0,5.046 -1.971,0 0,-12.206 1.971,0 0,5.479 5.768,0 0,-5.479 1.953,0 z m 9.617,0 0,1.682 -4.467,0 0,3.797 4.249,0 0,1.61 -4.249,0 0,3.472 4.467,0 0,1.645 -6.438,0 0,-12.206 6.438,0 z m 16.201,0 0,12.206 -1.953,0 0,-5.046 -5.769,0 0,5.046 -1.97,0 0,-12.206 1.97,0 0,5.479 5.769,0 0,-5.479 1.953,0 z m 9.616,0 0,1.682 -4.467,0 0,3.797 4.25,0 0,1.61 -4.25,0 0,3.472 4.467,0 0,1.645 -6.437,0 0,-12.206 6.437,0 z m 10.687,3.689 c 0,1.266 -0.743,2.477 -2.333,2.785 l 0,0.036 c 1.248,0.433 2.079,1.536 2.079,2.785 0,1.88 -1.374,2.966 -4.032,2.966 -1.483,0 -2.875,-0.037 -3.834,-0.055 l 0,-12.206 c 1.357,-0.018 2.587,-0.054 3.327,-0.054 3.745,0 4.793,2.151 4.793,3.743 m -2.315,5.299 c 0,-1.23 -0.958,-1.972 -2.784,-1.972 -0.416,0 -0.724,0 -1.05,0.018 l 0,3.616 c 0.47,0.018 0.995,0.037 1.538,0.037 1.736,0 2.296,-0.705 2.296,-1.699 m 0.235,-5.335 c 0,-1.23 -0.85,-2.098 -2.64,-2.098 -0.633,0 -1.121,0.036 -1.429,0.09 l 0,3.888 c 0.272,0.019 0.904,0.019 1.104,0.019 1.718,0 2.965,-0.506 2.965,-1.899 m 12.816,-3.653 -3.218,4.25 c -0.306,0.397 -0.686,0.867 -1.03,1.302 1.989,0.216 3.454,1.464 3.454,3.416 0,2.424 -1.736,3.31 -4.268,3.31 -1.375,0 -2.387,-0.017 -3.273,-0.072 l 0,-12.206 1.971,0 0,5.28 0.09,0 3.798,-5.28 2.476,0 z m -2.857,8.752 c 0,-1.211 -0.958,-2.025 -2.549,-2.025 -0.434,0 -0.777,0.018 -0.958,0.037 l 0,3.869 c 0.289,0.017 0.651,0.035 1.031,0.035 1.645,0 2.476,-0.577 2.476,-1.916 m 11.226,-8.752 0,1.682 -4.466,0 0,3.797 4.249,0 0,1.61 -4.249,0 0,3.472 4.466,0 0,1.645 -6.437,0 0,-12.206 6.437,0 z m 17.685,12.206 -1.973,0 -1.898,-7.63 c -0.18,-0.671 -0.308,-1.374 -0.434,-2.136 l -0.018,0 c -0.126,0.779 -0.308,1.593 -0.488,2.244 l -2.134,7.522 -2.152,0 -2.079,-7.504 c -0.217,-0.742 -0.361,-1.519 -0.489,-2.314 l -0.018,0 c -0.108,0.814 -0.252,1.59 -0.47,2.404 l -1.88,7.414 -2.099,0 3.166,-12.206 2.314,0 2.061,7.576 c 0.2,0.76 0.344,1.502 0.434,2.26 l 0.018,0 c 0.128,-0.776 0.253,-1.554 0.47,-2.295 l 2.08,-7.541 2.424,0 3.165,12.206 z m 15.495,-7.504 0,7.504 -1.934,0 0,-7.648 c 0,-2.28 -0.905,-3.111 -2.894,-3.111 -2.261,0 -2.803,1.229 -2.803,2.857 l 0,7.902 -1.97,0 0,-8.046 c 0,-2.243 0.813,-4.341 4.647,-4.341 3.2,0 4.954,1.628 4.954,4.883 m 12.981,-4.702 0,12.206 -1.916,0 0,-3.616 c 0,-1.791 0.054,-4.413 0.126,-5.804 -0.452,0.885 -0.94,1.861 -1.482,2.766 l -4.032,6.654 -2.586,0 0,-12.206 1.916,0 0,4.105 c 0,1.736 -0.036,4.213 -0.109,5.407 0.38,-0.815 0.814,-1.682 1.356,-2.569 l 4.177,-6.943 2.55,0 z m 5.15,12.206 -1.97,0 0,-12.205 1.97,0 0,12.205 z m 12.422,0 -2.026,0 -2.623,-7.397 c -0.36,-0.994 -0.578,-1.753 -0.794,-2.602 l -0.019,0 c -0.235,0.903 -0.525,1.771 -0.777,2.477 l -2.569,7.522 -2.17,0 4.341,-12.206 2.242,0 4.395,12.206 z m 7.88,-12.206 0,1.682 -4.466,0 0,3.797 4.25,0 0,1.61 -4.25,0 0,3.472 4.466,0 0,1.645 -6.436,0 0,-12.206 6.436,0 z m 10.905,0 -3.22,4.25 c -0.306,0.397 -0.686,0.867 -1.03,1.302 1.989,0.216 3.454,1.464 3.454,3.416 0,2.424 -1.736,3.31 -4.268,3.31 -1.374,0 -2.386,-0.017 -3.273,-0.072 l 0,-12.206 1.971,0 0,5.28 0.092,0 3.796,-5.28 2.478,0 z m -2.858,8.752 c 0,-1.211 -0.958,-2.025 -2.549,-2.025 -0.434,0 -0.777,0.018 -0.959,0.037 l 0,3.869 c 0.289,0.017 0.652,0.035 1.031,0.035 1.646,0 2.477,-0.577 2.477,-1.916 m 11.406,-5.063 c 0,3.815 -5.333,2.911 -5.333,5.352 0,1.013 0.777,1.718 2.296,1.718 0.723,0 1.501,-0.126 2.207,-0.344 l 0.108,1.755 c -0.741,0.126 -1.482,0.217 -2.206,0.217 -2.839,0 -4.484,-1.465 -4.484,-3.563 0,-3.942 5.333,-2.857 5.333,-5.425 0,-1.319 -1.085,-1.88 -2.423,-1.88 -0.886,0 -1.844,0.198 -2.531,0.452 l -0.109,-1.862 c 0.706,-0.182 1.574,-0.29 2.46,-0.29 2.911,0 4.682,1.628 4.682,3.87 m 4.232,8.517 -1.971,0 0,-12.205 1.971,0 0,12.205 z M 181.988,0 l 0,1.664 -8.68,0 0,-1.664 3.345,0 0,-10.542 1.972,0 0,10.542 3.363,0 z m 10.09,1.664 -2.08,0 -1.718,-3.635 c -0.379,-0.777 -0.741,-1.555 -1.012,-2.278 l -0.036,0 c -0.254,0.65 -0.543,1.338 -0.868,2.061 l -1.809,3.852 -2.152,0 3.816,-7.849 0,-4.357 1.971,0 0,4.357 3.888,7.849 z m 16.11,-5.95 c 0,4.088 -2.204,6.131 -5.497,6.131 -3.218,0 -5.858,-2.369 -5.858,-6.42 0,-3.743 1.79,-6.148 5.497,-6.148 3.237,0 5.858,2.388 5.858,6.437 m -2.097,-0.198 c 0,-3.038 -1.809,-4.484 -3.615,-4.484 -2.407,0 -3.545,1.861 -3.545,4.628 0,2.93 1.7,4.448 3.58,4.448 2.279,0 3.58,-1.644 3.58,-4.592 m 10.56,4.484 0,1.664 -6.364,0 0,-12.206 1.971,0 0,5.352 4.158,0 0,1.61 -4.158,0 0,3.58 4.393,0 z m 9.204,-7.25 0,8.914 -1.971,0 0,-8.824 c 0,-1.484 -0.507,-1.863 -1.428,-1.863 -0.435,0 -0.868,0.09 -1.177,0.198 l 0,-1.717 c 0.38,-0.073 0.832,-0.145 1.412,-0.145 2.351,0 3.164,1.41 3.164,3.437 m 9.527,-3.292 0,1.682 -4.465,0 0,3.797 4.249,0 0,1.61 -4.249,0 0,3.472 4.465,0 0,1.645 -6.438,0 0,-12.206 6.438,0 z m 10.905,0 -3.219,4.25 c -0.307,0.397 -0.688,0.867 -1.032,1.302 1.989,0.216 3.455,1.464 3.455,3.416 0,2.424 -1.738,3.31 -4.267,3.31 -1.375,0 -2.388,-0.017 -3.276,-0.072 l 0,-12.206 1.972,0 0,5.28 0.091,0 3.798,-5.28 2.478,0 z m -2.857,8.752 c 0,-1.211 -0.96,-2.025 -2.55,-2.025 -0.436,0 -0.779,0.018 -0.96,0.037 l 0,3.869 c 0.289,0.017 0.651,0.035 1.032,0.035 1.645,0 2.478,-0.577 2.478,-1.916 m 14.228,-4.05 0,7.504 -1.934,0 0,-7.648 c 0,-2.28 -0.904,-3.111 -2.891,-3.111 -2.261,0 -2.804,1.229 -2.804,2.857 l 0,7.902 -1.97,0 0,-8.046 c 0,-2.243 0.812,-4.341 4.645,-4.341 3.2,0 4.954,1.628 4.954,4.883 m 9.658,-1.013 c 0,3.815 -5.334,2.911 -5.334,5.352 0,1.013 0.777,1.718 2.296,1.718 0.724,0 1.5,-0.126 2.206,-0.344 l 0.108,1.755 c -0.74,0.126 -1.484,0.217 -2.206,0.217 -2.838,0 -4.483,-1.465 -4.483,-3.563 0,-3.942 5.332,-2.857 5.332,-5.425 0,-1.319 -1.084,-1.88 -2.422,-1.88 -0.886,0 -1.844,0.198 -2.532,0.452 l -0.108,-1.862 c 0.704,-0.182 1.574,-0.29 2.457,-0.29 2.914,0 4.686,1.628 4.686,3.87 m 11.771,-3.689 -4.43,12.206 -2.188,0 -4.377,-12.206 1.989,0 0.941,2.693 4.936,0 0.941,-2.693 2.188,0 z m -3.652,4.267 -3.907,0 1.375,3.779 c 0.235,0.651 0.434,1.32 0.561,1.936 l 0.035,0 c 0.147,-0.67 0.309,-1.248 0.544,-1.88 l 1.392,-3.835 z m 11.338,-4.267 0,1.717 -4.195,0 0,10.489 -1.973,0 0,-12.206 6.168,0 z m 7.991,0 0,1.682 -4.465,0 0,3.797 4.248,0 0,1.61 -4.248,0 0,3.472 4.465,0 0,1.645 -6.438,0 0,-12.206 6.438,0 z m 16.438,0 -1.864,12.206 -2.368,0 -2.406,-7.124 c -0.289,-0.905 -0.487,-1.52 -0.668,-2.423 l -0.036,0 c -0.146,0.795 -0.381,1.608 -0.67,2.494 l -2.351,7.053 -2.349,0 -1.827,-12.206 2.007,0 0.778,6.312 c 0.127,1.156 0.254,2.114 0.325,3.164 l 0.037,0 c 0.144,-0.886 0.452,-1.935 0.776,-2.893 l 2.189,-6.583 2.042,0 2.296,7.089 c 0.309,0.903 0.49,1.698 0.635,2.387 l 0.037,0 c 0.09,-0.796 0.18,-1.682 0.378,-2.985 l 0.96,-6.491 2.079,0 z"
         style="fill:#231f20;fill-opacity:1;fill-rule:nonzero;stroke:none"
         id="path26"
         inkscape:connector-curvature="0" /></g><g
       id="g28"
       transform="translate(482.7251,443.3945)"><path
         d="M 0,0 8.818,-13.229 14.721,-5.635 7.309,9.414 0,0 Z"
         style="fill:#2f7789;fill-opacity:1;fill-rule:nonzero;stroke:none"
         id="path30"
         inkscape:connector-curvature="0" /></g><g
       id="g32"
       transform="translate(440.7788,440.6318)"><path
         d="m 0,0 -17.086,-21.015 0,-15.443 L -1.309,-20.94 0,0 Z"
         style="fill:#797c58;fill-opacity:1;fill-rule:nonzero;stroke:none"
         id="path34"
         inkscape:connector-curvature="0" /></g><g
       id="g36"
       transform="translate(455.6338,459.0591)"><path
         d="M 0,0 0.944,-22.69 19.645,-4.471 9.121,11.323 0,0 Z"
         style="fill:#26a594;fill-opacity:1;fill-rule:nonzero;stroke:none"
         id="path38"
         inkscape:connector-curvature="0" /></g><g
       id="g40"
       transform="translate(475.0654,483.166)"><path
         d="M 0,0 -10.311,-12.784 0.213,-28.578 9.601,-19.437 0,0 Z"
         style="fill:#83111f;fill-opacity:1;fill-rule:nonzero;stroke:none"
         id="path42"
         inkscape:connector-curvature="0" /></g><g
       id="g44"
       transform="translate(500.8696,466.7363)"><path
         d="M 0,0 -4.252,8.643 -16.204,-3.007 -10.836,-13.928 0,0 Z"
         style="fill:#489cbc;fill-opacity:1;fill-rule:nonzero;stroke:none"
         id="path46"
         inkscape:connector-curvature="0" /></g><g
       id="g48"
       transform="translate(482.7251,443.3945)"><path
         d="M 0,0 7.309,9.414 1.941,20.335 -7.446,11.194 0,0 Z"
         style="fill:#261417;fill-opacity:1;fill-rule:nonzero;stroke:none"
         id="path50"
         inkscape:connector-curvature="0" /></g><g
       id="g52"
       transform="translate(452.8823,515.7495)"><path
         d="M 0,0 -7.502,0 -12.104,-75.118 2.751,-56.69 0,0 Z"
         style="fill:#60bd8d;fill-opacity:1;fill-rule:nonzero;stroke:none"
         id="path54"
         inkscape:connector-curvature="0" /></g><g
       id="g56"
       transform="translate(440.7788,440.6318)"><path
         d="M 0,0 -1.309,-20.94 15.799,-4.263 14.855,18.427 0,0 Z"
         style="fill:#0b4843;fill-opacity:1;fill-rule:nonzero;stroke:none"
         id="path58"
         inkscape:connector-curvature="0" /></g><g
       id="g60"
       transform="translate(451.4556,539.4863)"><path
         d="m 0,0 -3.115,6.42 c 0,0 -6.658,-10.183 -6.658,-14.139 0,-6.277 2.953,-10.419 2.953,-10.419 l 9.135,0 1.616,9.854 -5.865,0 L 0,0 Z"
         style="fill:#83111f;fill-opacity:1;fill-rule:nonzero;stroke:none"
         id="path62"
         inkscape:connector-curvature="0" /></g></g></svg>